<?xml version="1.0" encoding="utf-8"?>
<!-- Generator: Adobe Illustrator 26.5.0, SVG Export Plug-In . SVG Version: 6.00 Build 0)  -->
<svg version="1.1" id="Layer_1" xmlns="http://www.w3.org/2000/svg" xmlns:xlink="http://www.w3.org/1999/xlink" x="0px" y="0px"
	 viewBox="0 0 512 512" style="enable-background:new 0 0 512 512;" xml:space="preserve">
<style type="text/css">
	.st0{fill:#4971A9;}
	.st1{fill:#F58A1F;}
</style>
<g id="XMLID_1_">
	<path id="XMLID_3_" class="st0" d="M6.8,427.76v1.82c0,45.6,36.76,82.36,82.36,82.36s82.36-36.76,82.36-82.36V338.8L6.8,427.76z"/>
	<path id="XMLID_4_" class="st0" d="M505.05,428.32c-1.4-17.68-8.84-33.96-21.47-46.58v-0.42L335.55,250.41l-143.82,77.31
		L377.5,493.01c14.03,12.07,31.71,18.66,50.23,18.66c2.39,0,4.63,0,6.45-0.42c20.49-1.82,39.15-11.65,52.2-26.94
		C500.42,468.73,506.45,448.81,505.05,428.32z"/>
	<path id="XMLID_5_" class="st0" d="M171.52,93.12v-8.84v-1.82c0-45.6-37.18-82.36-82.36-82.36C43.56,0.09,6.8,36.85,6.8,82.45
		v101.02L171.52,93.12z"/>
	<path id="XMLID_6_" class="st1" d="M6.8,218.84L391.81,8.79c11.22-6.03,23.71-8.84,36.34-8.84c7.86,0,15.86,1.4,23.71,3.79
		c40.55,13.05,62.44,56.27,49.39,96.82c-5.61,16.7-16.28,31.15-31.15,40.97v0.42l-4.63,2.81L6.8,392.4V218.84z"/>
</g>
</svg>
