<?xml version="1.0" encoding="utf-8"?>
<!-- Generator: Adobe Illustrator 27.0.0, SVG Export Plug-In . SVG Version: 6.00 Build 0)  -->
<svg version="1.1" id="Layer_1" xmlns="http://www.w3.org/2000/svg" xmlns:xlink="http://www.w3.org/1999/xlink" x="0px" y="0px"
	 viewBox="0 0 512 512" style="enable-background:new 0 0 512 512;" xml:space="preserve">
<style type="text/css">
	.st0{fill:url(#XMLID_00000016071673044860089780000007808631836194016671_);}
</style>
<g id="XMLID_1_">
	
		<linearGradient id="XMLID_00000019639095163291102220000013608828788137036984_" gradientUnits="userSpaceOnUse" x1="-345.0709" y1="584.2496" x2="-332.2643" y2="584.2496" gradientTransform="matrix(0 35.7617 35.7617 0 -20637.7832 12367.3564)">
		<stop  offset="0" style="stop-color:#F88A36"/>
		<stop  offset="1" style="stop-color:#FD2020"/>
	</linearGradient>
	<path id="XMLID_3_" style="fill:url(#XMLID_00000019639095163291102220000013608828788137036984_);" d="M471.5,342.41
		c28.48-112.93-40.12-245.23-156.7-315.37c51.77,70.01,72.53,153.06,54.43,227.13c-1.26,6.45-3.93,13.05-6.45,19.5
		c-22.31-15.43-125.7-79.12-250-204.97c-3.93-3.93,67.34,101.29,146.32,184.2c-37.6-22.03-142.54-97.36-208.61-158.25
		c7.72,13.05,18.1,25.95,28.48,40.26c55.7,71.41,126.96,156.99,213.8,223.2c-60.89,37.6-146.32,40.26-233.16,0
		C37.58,349,19.48,336.1-0.02,321.79c36.34,57.1,92.03,107.74,159.37,136.22c80.39,35.07,162.6,35.35,229.24-5.19
		c28.48-14.31,85.44-29.88,116.58,29.88c6.45,16.83,22.03-61.03-36.34-132.29C470.23,347.6,470.23,345.07,471.5,342.41L471.5,342.41
		z"/>
</g>
</svg>
